/* XPM */
static char *w2[] = {
/* columns rows colors chars-per-pixel */
"128 128 87 1",
"  c #254750",
". c #264950",
"X c #284C51",
"o c #275255",
"O c #285455",
"+ c #295952",
"@ c #2A5E5A",
"# c #315D56",
"$ c #3A5E58",
"% c #2B6453",
"& c #32655A",
"* c #326856",
"= c #3A665D",
"- c #3A6D5A",
"; c #3C715A",
": c #426F5D",
"> c #4B715F",
", c #4C7160",
"< c #319173",
"1 c #339B77",
"2 c #339C78",
"3 c #37AF57",
"4 c #38AF57",
"5 c #38B157",
"6 c #39B158",
"7 c #3BBD59",
"8 c #34A074",
"9 c #34A67D",
"0 c #37AE75",
"q c #35AA79",
"w c #3CA477",
"e c #3CA578",
"r c #3DAE7D",
"t c #3EB17C",
"y c #3BC059",
"u c #3DCC5A",
"i c #3BC461",
"p c #46A67B",
"a c #45AE7F",
"s c #47B97D",
"d c #40CD5A",
"f c #4AC35F",
"g c #46D25E",
"h c #45CE61",
"j c #4CCF64",
"k c #4ED261",
"l c #4ED862",
"z c #50D461",
"x c #5CD567",
"c c #5FD868",
"v c #72D774",
"b c #73D975",
"n c #74E179",
"m c #75EC7E",
"M c #7DEA79",
"N c #77F376",
"B c #78F477",
"V c #7EF57E",
"C c #7FF97A",
"Z c #46AF80",
"A c #47B080",
"S c #4FBA80",
"D c #58B983",
"F c #84E97C",
"G c #80F67F",
"H c #87FE7E",
"J c #88FE7F",
"K c #85F481",
"L c #8FFE81",
"P c #90FF82",
"I c #98FF84",
"U c #ACD789",
"Y c #AED989",
"T c #AFE38C",
"R c #B1E68A",
"E c #B6E98D",
"W c #BEE990",
"Q c #B1F48B",
"! c #BAF98F",
"~ c #B2F190",
"^ c #BDF494",
"/ c #C0EB91",
"( c #C2F696",
") c #C1F991",
"_ c #C9FE96",
"` c #CFFE98",
"' c #D2FE99",
/* pixels */
"''''''''''''''`'''''''''`''''''''''`'''''''''''''''''''''''''`''''''''''''''''`''''''''''''''''''''''''''/$ .o1992OO29999tVHHHKJ",
"'''''''''''`''''''''''''''''`'''''''''''`'''''''''''''''''''''''`'''''''`'''''''''''''''''''''''`''''''_/U=o.O1992OO29999rmGVVGG",
"'''''''''''''''''''''''''''''''''''''''''''''`''''''''''''''''''''''''''''''''''`'''''`''''''''''''''''/,=1<oO1992OO199999tttrtt",
"''''''''''''''''`''''''`''''''''''''''''''''''''''`'''`''''`''''''''''`''''''''''''''''''''_'''''''''''W$o12OO<12<OO<22211111111",
"'`'''''''''''''''''`'''''''''''''''''''''''''''''''''''''''''''''''''''''''`''`''''''''''''''''''''''''W$o12O.OOOo..OOoooooooooo",
"''''''''''`'''''''''''''''''`'''''`'`'''`''''''''''''''''''''''''`'''`'''''''''''''''''''''''''''''''''W$O<<OXOOOOOO@$####X @$##",
"'''''''`''''''''''''''''''`''''''''''''''''''''''''''`'''''''''''''''''''''''''''''''''''''''''''''''''/$Xoo.O<12222nMMMMv##vMMM",
"''''''''''''''''''''''''''''''''''''''''''''`'''`''''''''''''''''''''''''''''''''`'''''''''''''''''''''W$Xoo.o19999ZmKGGGn#@nGGG",
"'''''''''''''''''''''''''''''''''''''`''''''''''''''''''''''''''''''''''''`''''''''''''''''''''''''''''W$o<<oO199999rtrAaeOOettt",
"'''''''''''''''''''''''''`''''''''''''''''''''`''''''''''''''''''''''''''''''''''''''''''`'''''''''''''/$o21OO<1222211111<OO<212",
"''''''''''''''''''''''''''''''''''''''''''''''`''''''''''''''''''''''''''''''''''''''''''''''''''''''''W$o22OXOOOOooooOOOO  oOoo",
"_______________________________________________________________________________________________________E$o<<OXOOOoXXooOOOOO+####",
"LLPPPPPPPPPPPPPPPPPPPPPPPPPPLLPPPPPPPPPPPPPPPPPPPPPPPPPPPPPPPPPPPPPPPPPPPPPPLPPPPPPPPPPPPPPPPPPPPPPPPPPF#XOOXo<22<OO<2221119nMMM",
"HHHHHJHJHHHJJHJHHHHHHHJHJHHJHHHHJHHHJHHJJJHJHJHJHHJHHHHHHHHHHJHJHHHHHHJHJHHJHHHHHHJHJHHJHJHHHJHJHHJHHHHM& oOXO2992OO2999999rmGGG",
"HHHHHJHHHHHHHHJHJHHHHJHJHHHHJHHHJHHJHHHHJHJHHHJJHHHHJHHJHHHJHJHHHJHHHJHJHHHHHHHHHJHJHHHHJHJHHHJJHHHHJHJM#o<<XO2992OO19999999rttt",
"PPPPPPPPPPPPPPPPPPPPPPPPPPPPPPPPPPPPPPPPPPPPPPPPPPPPPPPPPPPPPPPPPPPPPPPPPPPPPPPPPPPPPPPPPPPPPPPPPPPPPPPF#o12OO<12<Oo<22112111111",
"_______________________________________________________________________________________________________E$o22O.ooOO.XOoooOOOOOooO",
"_______________________________________________________________________________________________________E$o<<O.......X X XX  XX.X",
"PPPPPPPPPPPPPPPPPPPPPPPPPPPPPPPPPPPPPPPPPPPPPPPPPPPPPPPPPPPPPPPPPPPPPPPPPPPPPPPPPPPPPPPPPPPPPPPPPPPPPPPF#XooXX......  .. .....X.",
"JJHHJJHHJJHJJJHHHHJJHJHHJJJHHJJJHJHHJJJHHJJJHJHHJJJJJJJJJJHJJJJJJHHJHJJJHJHHJJJHJJHHHJJJHHJHJJJHJJJJJJJM#X. ............X.......",
"JJJJJJJJJJJJJJJJJJJJJJHJJJJHJJJJJHJJJHJJJJJJJJJJJJJJJJJJJJJJJJJJJJJJJJJJJHJJJJJJJJJJJJJJJJJHJJJJJJJJJJJM# .     ..    ..    ....",
"JJJJJJJJJJJHJJHJJJJJJJJJJJJJJJJJJJJJJJJJJJJJJHJHJJJJJJJJJJHJJJJJHJJJJJHJJJJJJHJJJJHJJJJJJJJJJJJJJJJJJJJM;#####&#@#####$#&#$####@",
"JJJJJJJJJJJJJJJJJJJHJJJJJJJJJJJJJJHJJJJJJJJJJJJJJJJJJJJJHHHJJJJJHJHHJJJJJJHJJJJJJJJJJHJJJJJJJJJJJJJJJJJJMMMMMMMMMMMMMMMMMMMMMMMM",
"JJJHJHVVVVHJJJJJJJJJHJJJJHJJJHJJJJJJJJJJJJHJJJJJJJJJJJJJJPPPPPPPPPPPJJJJJJJJJJJJJJJJJJJJJJJJJJJJJJJJJJJJJJJJJJJJLJJJJJJJJHJJJJJJ",
"JJJJJVsrrsVJJJJJJJJJJJJJJJJJJJJJJJJJJJJHHJJJJJJJJJJJJJJJ)__________)PJJJJJJJJJJHHJJJJJJHJJJJJJJJJJJJJJJJJJJJJJJJJJJJJHJJJJJJJJJJ",
"JJJJVmr99tVJJJJJJJJJJJJJJJJJHJJJJJHJJJJJJJJJJHJJJJJJPPPI_''''''''''_IPPPJJJJJJJJJJJJJHJJJJJJJJJJJJJJJJJJJJJHJJJJJJJJJJJJHJJHJJJH",
"HJJVsr999tVJJJJJJJJJJJJJJJHJJJJJJJJJJJJJJJJJJJJJJJJP)`__`'''''''''''___)LHJJJJJJJJJJHJHHJJJJJJJJJJJJJHJJJJJJJJHJHJJHJJJJJJJJJJJJ",
"JHVmr999qtmVCCCCCCCCHJJJJJJJJJJHJJHJJHJJJJHJJJJHVVVG^('''''''''''''''''_IPJJJJJJCCCCCCCGGCCCCCJJJJJJJJJJHJJJJJJJJJJJJJJHJJJJHJJJ",
"HKst999qiitthhggggglCJJJJJJJJJHJHJJJJJHJJJHJJJJVsraraD(`''''''''''''''''__PJJJLClgggggggggggglCJJJJJJJJJJJHJJJJJJJJHJJJJJJJJJJJJ",
"Vmr999q0uuqqiyuuuuugBCJJJJJJJJJJJJJJJJJJJJJJJJJVr9999a(''''''''''''''_))!!HCCCCBguuuuuuuuuddugmBCCJJJJJHJJJJJHJJJJJJJJJJJJJJJJJJ",
"tr999qiyuiq9q0uuuuuuglGJJJJJJJJJJJJJJJJJJHJJJJHVr9999a(`''''''''''''')ckkkgggggduuuuuuuuuuuuuursgzCJJJJJJJJHJJJJJJJJJHJJJHJJJJJJ",
"999999uduu0q9quuuuuuugBCCCCCCCCGHJJHJJJJJJJJHJJVr9999a('''''''''''())QkuuuuuuuuuuuuuuuuuuuuuuyqqihmVCCCCHJJJJJJJHJJJJJJJJJJJJHCC",
"99999qiuuuui9qiuuuuuuuggggggggglHHHHHHHHHHJJHJJGr9999A('''''''''')cgzguuuuuuuuuuuuuuuuuuuuuu0q99qqraggulCHHHHHJHJJJJJHJJJJHHHGlg",
"9999q0uuuuuuqqiuuuuuuuuuuuuuuuugNCCCBHGHCGHHJJHGSZ211p^''''')))))Qkuuuuuuuuuuuuuuuuuuuuuuuiiq999999qiuugNHCCCCHJJJJJJJJJJJHHGBgu",
"999qiuuuuuuiq9q0uuuuuuuuuuuuuuuuggggggggglHJHHJJ!T=Oo=W''''(ckkkzkduuuuuuuuuuuuuuuuuuuuuuu0q99999999q0uuggggggHJJJJJHHHHJJJHlddu",
"999qiuuuuuuu0q9qiuuuuuuuuuuuuuuuuuuuuuuuudNBGGGH!R>$$>T))))Qguuudduuuuyyuuuuuuuuuuuuuuuuuiq9999999999qiuuuuuugBCCCCCCCCHCCGBguuu",
"999qyuuuuuuuuiqquuuuuuuuuuuuuuuuuuuuuuuuddddgdggkxTWWRxkkkkgdduuuuuuuy%%yuuuuuuuduuuuuuuuu99999999999quuuuuuudggggggggggggggduuu",
"999quuuuuuuuuiqqiuuuuuuuuuuuuuuuuuuuuuuuddduddddukQ))Qkuuuuuuduuuuuuuy%%yuuuuuuuuuuuuuuuuiq9999999999qiuuuuuuuuuuuuuuuuuuuuuuduu",
"999qiuuuuuuuuiq9q0uuuuuuuuuuuuuuuuuuuuuuduuuuudduukkzkduuuuuuuuuuuuuuuyyuuuuuuuuuuuuuuui0q99999999999quuuuuuuuuuuuuuuuuuuuuuuuuu",
"999qiuuuuuuuuuq99qiuuuuuuuuuuuuuuuuuuuuuuuuuuddduuuuuuuuuuuuuuuuuduuuuuuuuuuuuuuuuuuuuuuq999999999999qiuuuuuuuuuuuuuuuuuuuuuuuuu",
"9999q0uuuuuuuuq99qiuuuuuuuuuuuuuuuuduuuuuuduuduuuuuuuuuuuduuuuuuuuuuuuuuuuuuuuuuuuuuuuduq999999999999quuuduuuuuuduuuuuuduuduuuuu",
"999999uuuuuuuuq99q7777777777777777yyy7yy777777y777777777uyuuuuuuuuyuy77y777777777u77777799999999999999777777777777777777yyyy7777",
"99999qiuuuuuuiq992%++++++++++++++++++++++++++++++++++++%20duuuuuuy08+++++++++++++++++++%29999999999991%+++O+++++++++++++++++++++",
"99999qiuuuuuuuq991o.  X ........      ..   .    .. . Xo@2qduuukkdu08@o+o........   .   X<2999999999991o  X XX  X  . ....    . ..",
"999999q0uuuuuiq992O............. X XX...............XO<29quuugEQkuii812<o... X X X XX XXo@299999999992oX X X XX X...............",
"9999999qiiuuuiq992O.............  X ................ O299qyudk))kuuy0q92o...X X X X  X   o<2999999212<oXX X X  X................",
"999999999qqqqq9992O............. X X................XO299qiudk))zuuuuiq2o  X X X X XX X ..o@299992@OOoX  X X X  ................",
"999999999999999992O.............X X .......X.......X O29q0uudk))kuuuuuq2&OX X X X XX X X.. o<2992<o.XX XX X X  X................",
"999999999999999991OXX X ..X..... XX X X X X X XX X.. o19iuuuuk))kuuuuiq99<o.XX X............O%22%+X................XX X X  X X X",
"999999999999999991O. X X........X  X X X X X X XX ..o@2quuuuuk))kuuuuuq991@oX X ...X........Xo22+.................X  X XXXX X X ",
"999999999999999991O X X ........ XX X X X X X X    o<29qyuuuuk()guuuuiq9992<o  X.............o22X .......X.....X X XX X  X X X X",
"999999999999999991OX X X........X  X X X X X X XXXO&29q0uuuuugQQzuuuuu099992@oX ............XO<<+ X.............X X  X XX X X X ",
"999999999999999991oXX X .. ....X X XX X X X   X  o<29qiuuuuuudkgduuuuuuiq9992<O...............oo ............... X X XX X. X  .X",
"99999999999999992<o  XXX..X.... X X  XXX X XXXOOo&29q0iuuuuuudduuduuuuuyq99992@o................  ..............X X X  X ...XX. ",
"9999999999999992@oX  X X...X.. X X X X XX  X O<2129qiuuuuuuuuuuuuuuuuuuuq999992<o..........X.........X.......... X XX X ........",
"9999999999999991oXX X X ......X X X X X  XOOO@8qqqqquuuuuuuuuuuuuuuuuuuu0qqq9992@OX.............................X X  X X.. X. X.",
"9999999999999991O X X X X X  X X X XX XX O<228iiiuiuuuuuuuuuduuudduuuuuuuyiiq9992<O.....................................X.......",
"9999999999999991OXXX X X X XX X X .. X XO@29q0uuuuuuuuuuuuuukkkkkgduuuuuuduu0q9992@o..............................X.............",
"9999999999999991o  XX X  XX  X.X....   o<29qiiuuuuuuuuuuuuugQ))))Qzuuuuuuuuuyiq9992<O.........................X.................",
"999999999999992<O X  X XX  XX.. ....OOO@29q0uugguugguuggdggc)'''')cgduggddgguu0q9992@o..........................................",
"99999999999992@oXXX X X  X X X X.. O<1129qiuuhNNggBBggBBggQ)'''''')QggBBggBBhuuiq9992<o.........................................",
"1199999911112<O X  X X XX X X   ++O@2q99q0uuugNNugBBggBBgz)'''''''')kgBBggBBhuuu099992%o...................X...X................",
"o@199qi7%ooOOoX X X X X  X X   o<8<1999qiiuuuugguuhguuggdz)'''''''')kugguuhguuuuui99992<o .................................X....",
" o199qd7+ ..XX X X X X XX X XXO&88qqqqq0uuuuuuuuuuuuuuuuuz)`''''''')kuuuuuuuuuuuuu099992%o++o...................................",
" O299qi7+.X.....XX XX X X X  o<22999uuuuuuuuuuuuuuuuuuuuuk)'''''''')kuuuuuuuuuuuuuuu5699911<o..XX X X X X XX X X X X XX X.X X X ",
" O2999u7+.......  X  X X X Xo@2999q0uuuduuuuuuuuuuuuuuuuuk)'''''''')kuuuduuuuuuuuuuu00qq9991@oooXX X X X XX X X X X X  X . X XXX",
"XO299qu7+.......X  XX X X Xo<2999q7uuuuuuuuuduuuuuuuuuuuuz)''''''''(zuuuduuuuuuuuuuuuuyiq999912<X X X X X X  X X.. X X XX.. ....",
" O299qi7O....... X X X X XO@2999q0uuuuuuuuuuuuuuuuuuuu777fTWWWWW//')zuuuuuuuuuuuuuuuuuui0qqq9992@oX  X X X XX X .XX XXooX.oo....",
"Xo2999q2o.....X.X X X X Xo<2999qiuuuuuuuuuuuuuuuuduuuy%+++$$$$$$$>/)zuuuuuuuuuuuuuuuuuuuuyiiq9992<O X X X X  X X.....O<<oO<<o...",
" O299992oX...... X X X Xo@2999q0uuuuuuuuuuuuuuuuuuuuy6%Ooo#######:YRkuuuuuuuuduuuuuuuuuuuuuu0q9992@OOOXX X XX X .... o22oo22oXoo",
" O299992o.......X X X XO<2999qiuuuuuuuuuuuuuuuuduuuu%@<11wnMMMMMMv:*7uuuuuuuuuuuuuuuuuuuuuuuuiq999222<o X  X X X...XXO22OO11Oo<2",
"XO<2222<o.X..... X X X O2999q0iuuuuuuuuuuuuuuuuuuu75+@299tmVKJJJHF-*67uuuuuuuuuuuuuuuuuuuuuuui0q999992@OX X X X ...  o22OO19Oo29",
" XOoOoOOX.......X  X   o199qiuuuuuuuuuuuuuuuuuuuuy%%<99999rsVJHJJJMv*%yuuuuuuuuuuuuuuuuuuuuuuuuuq999992<O X  X X.....O22OO22OO29",
" X XX  X........ XX XXo&299quuuuuuuuuuuuuuuuuuuuy5@O2999999rMVHHJJJM;*5yuduuuuuuuuuuuuuuuuuuuuuu0q999992OX XX X .....O<<OO<<oO<2",
"X X  XXX........X XX.o<2999qiuuuuuuuuuuuuuuuuuuy%%<999999999rsVHJJJJMv*%yuuuuuduuuuuuuuduuuuuuuuiiq99991O X  X  ......OO.XoO..OO",
" X XX X .X...... X Xo@2999q0uuuuuuuuuuuuuuuuuuy5++29999999999rmGGGVCJM;*5yuuuuuuuuuuduuuuuuuuuduuu0q9992@O XX XX.X..............",
".... X X...........o<2999qiiuuuuuuuuuuuuuuuuu7%@<1999999999999rtattsCHMv*%yuuuuuuuuuuuuuuuuuuduuuuui99992<OX XX ........X.......",
"....X X ...........o2999qquuuuuuuuuuuuuuuuuuu7+o1999999999999999299rmCJM%+7uuuuuuuuuuuuuuuuuuuuuuuuu0q9992@OX  X................",
"....XX X...........o2999uuuuuuuuuuuuuuuuuduuu7+o19999999999999999999asHF#+7uuuuuuuuuuuuuuuuuuuuuuuuuuiq9992<o X ................",
" .... X .........Xo%29q0duuuuuuuuuuuuuuuuuuud7+o<299999999999999999980bv++yuuuuuuuuuuuuuuuuuuuuuuuuuuiq99992OX X................",
"X. X............ o<29qiyuuuuuuuuuuuuuuuuuuuuu7+.o@19999999999999999992&# Xfddduuuuuuuuuuuuuuuuuuuuuuuuq99991oX X................",
"......X.........XO299quuuuuuuuuuuuuuuuuuuuuuy5%+$=<299999999999999992<%+$>47dduuuuuuuuuuuuuuuuuuuuuuuiq99992@oX ................",
"................ O199quuuuuuuuuuuuuuuuuduuuy%%5fRY=@2999999999999992@@3hFY:%7dduuuduuuuuuuuuuuuuuuuuuiq999992<oX..X.............",
"...X............o@19q0iduuuuuuuuuuuuuuuuuuuu++7gQT$o<22221222222112<oo7k)/$+7dduuuuuuuuuuuuuuuuuuuuuuu0q999991O .........X...XoO",
"...............o<19qiuuuuuuuuuuuuuuuuuuuuuu7++7dkf+XOOOOOOOOOOOOOOOO.+7k`/$+7uuuuuuuuuuuuuuuuuuuuuuuuuiiq99992OX.............o<2",
".............Xo%99q0yuuuuuuuuuuuuuuuuuuduuu7++7du7+ X X . .. X X.... +7k)F$X7uuuuuuuuuuuuuuuuuuuduuuuudu0q9992@OX..........Xo@29",
".............O<29qiuuuuuuuduuuuuuuuuuuuuuuu7++7du7+  X X....X X .... +7uzf++7uuuuuuuuuuduuuuuuuuuuuuuuuuyiq9992<o......X...o<299",
".............O299qiuuuuuuuuuuuuuuuuuuuuuuudy%%3774+ X X .... X X.....+6775%%7uuuuuuuuuuuuuuuuuuuuuuuuuuuuuq99992@o.........O2999",
".............O1990yuuuuuuuuuuuuuuuuuuduuuuuu75%+++X X  XX X X X .... X+o+%47uuuuuuuuuuuuuuuuuuuuuuuuuuuuuiq999992<O........O2999",
"........ ooOo@2906uuuuuuuuuuuuuuuuuuuuuuuuuuuy%++OX  XX  X X X X.... X+++%yuuuuuuuuuuuuuuuuuuuuuuuuuuuuuuu0q999992@OX......o<299",
"........ o<22299uuuuuuuuuuuuuuuuuuuuuuuuuuuuuu7776OXXX XX X X  X.... +5777duuuduuuuuuuuuuuuuuuuuuuuuuuuuuuuiq999992<o......Xo@29",
"........o@29999quuuuuuuuuuuuuuuuuuuuuuuuduuuuuuuy4%OooX  X X XX ..OOo%57uuuuuuduuuuuuuuuuuuuuuuuuuuuuuuuuuuu0q999992@o...X...o<2",
"....X  o<299999quuuuuuuuuuuuuuuuuuuuuuuuuuuuuud7%%<11<O X X XX X.O<11<@*7uuuuuuuuuuuuuuuuuuuuuuuuuuuuuuuuuuuiiq999992<O......XoO",
".... XO&299999q0uuuuuuuuuuuuuuuuuuuuuuuuuuuuuuy3@@292<O.oOOOOOoO.O<292@%5yuuuuuuuuuuuuuuuuuuuuuuuuuuuuuuuuuuuu0q999992@O........",
".... O<299999qiiuuuuuuuuuuuuuuuuuuuduuuuuuuuu7%%<291@OXO<212211<O.O@2q2<%%7uuuuuuuuduuuuuuuuuuuuuudduuuuuuuuuuii9999992<o.......",
"....XO299999q0uuuuuuuuuuuuuuuuuuuuuuuuuuuuuuu7++191<O.XO<221122<O. O<291o+7uuuuuuuuuuuuuuuuuuuuuuuuuuuuuuuuuuuuu99999992@OX.....",
"..X..o29999qiuuuuuuuuuuuuuuuuuuuuuuuuuuuuuuud7++88@o....OOOOOOOOX..XX%<4++7duuuuuuuuuuuuuuuuuuuuuuuuuuuuuuuuuuuuy99999992<o  ...",
"ooOoo&29999qiuuuuuuuuuuuuuuuuuuuuuuuduuuuuuu73+X<<+.....  X  X   ...XX:3X+37uuuuuuuuuuuuuuuuuuuuuuuuuuuuuuuuuuuu7q99999992%o....",
"22221299999quuuuuuuuuuuuuuuuuuuuuuuuuuuuuuuy%+XXXXX..... X.  X X....XX++  +%7udduuuuuuuuuuuuuuuuuuuuuuuuududuuuuuiq99999992<o...",
"9999999999q0uuuuuuuuuuuuuuuuuuuuuuuuuuuuuuy5+  X##X ....XX####XX.....XX  X +37dduuuuuuuuuuuuuuuuuuuuuuuuuuuuuuuuuu0qqq999992@o..",
"999999999qiiuuuuuuuuuuuuuuuuuuuuuuduuuuuuy%+X  %vv#..... #vMMv# .X X X    ..+%7duuuuuuuuuuuuuuuuuuuuuuuuuuuuuuuuuuuiuiq999992<o.",
"99999999q0uuuuuuuuuuuuuuuuuuuuuuuuuuuu77y5+ XX#;bv#....X#-MJJM;#X.X X XX%#X. +37uuuuuuuuuuuuuuuuuuuuuuuuuuuuuuuuuuuuuiq9999992@o",
"99999999uuuuuuuuuuuuuuuuuuuuuuuuuuuuuy%+++   #bb;#X.   #vMHHJJMv#      $bb# XX+++%7uuuuuuuuuuuuuuuduuuuuuuuuuuuuuuuuuiq999999922",
"999999q0uuuuuuuuuuuuuuuuuuuuuuuuuuuu75+.   X #bb-#####.#vMMMMMMv#X#####>bc#. X   +37uuuuuuuuuuuuuuuuuuduuuuuuuuuuuuuuu0qqq999999",
"99999qiiuuuuuuuuuuuuuuuuuuuuuuuuuuu7%+X ......#-vMMMMv# ######## #vMMFMv:+XXX X   +%uuuuuuuuuuuuuuuuuuuuuuuuuuuuuuuuuuuuiiq99999",
"9999q0uuuuuuuuuuuuuuuuuuuuuguuuuduu7+. X.....  #MJJJVv-######&###-vBHJHM+ XX X X   +7uuuuuuuuuuuuuuuuuuuuuuuuuuuuuuuuuuuuu0q9999",
"999qiiuuuuuuuuuuuuuuduuuuuuuuuuuuuu7+.X ...... &MJJM;-vMMMMMMMMMFv--MHHM% ..X X    +7uuuuuuuuuuuuuuuuuuuuuuuuuuuuuuuuuuuuuiiq999",
"qqq0uuuuuuuuuuuuuuuuuuuuuuuuuuuuuuu7+  X...... @vMMb-;MJMMMMMMMMHF--vMMv%... X X + +7uuuuuuuuuuuuuuuuududuuuuuuuuuuuuuuuuuuu0q99",
"uiuyuuuuuuuuuuuuuuuuuuuuuuuuuuuuuuu7+....... X X###;bMHM;######;MJMb;###....    +  +7uuuuuuuuuuuuuuuuuuudduuuuuuuuuuuuuuuuuuiiq9",
"uuuuuuuuuuuuuuuuuuuuuuuuuuuuuuuuuuu7+.......X XXoX #MJMv&OoooOO&vFJM#.oo. .. +     +7uuuuuuuuuuuuuuuuduuuduuuuuuuuuuuuuuuuuuuu0q",
"uuuuuuuuuuuuuuuuuuuuuuuuuuuuuuuuuuu7+.......XX O<1X#MF;&<111212<*;MM#o<<+     +    +7uuuuuuuuuuuuuuuuuuuuuuuduuuuuuuuuuuuuuuuuui",
"uuuuuuuuuuuuuuuuuduuuuuuuuuuuuuuuuu7+..X.... X O<<o#MM&X<999992<o#MM#o<<+  +       +7uuuuuuuuuuuuuuuuuuuuuuuuuuuuuuuuuuuuuuuuuuu",
"uuuuuuuuuuuuuuuuduuuuuuuuuuuduuuuuu7+X... X X  Xoo #MM$ O@2992@oX#MM+.oX........ + +7uu7%%7uuuuuuuuuduuuuuuuuuuuuuuuuuuuuuuuuuuu",
"uuuuuuuuuuuuuuuudduuuuuuuuuuuuuduuu7+...+oXXOOXX++$:bv@ XO<22<o  #bb,$=$X.......   +7uuu%%7uuuuuuuuuduuuuuuuuuuuuuuuuuuuuuuuuuuu",
"uuuuuuuuuuuuuuuuuuuuuuuuuuuuuuuuuuu7+ .o<<oo<<OO4fRY:#XX XOOOo.  X#:YWWU$.......   +7uuu77uuuuuuuuuudduuuuuuuuuuuuuuuuuuuuuuuuuu",
"uuuuuuuuuuuuuuuuuduuuuuuuuuuuuuuuu75%+++21&O<<@%7j~R=oOOOoOOOOo+Ooo=T((T=o......  +%7uuuuuuuuuuuuuuuuuuuuuuuuuuuuuuuuuuuuuuuuuuu",
"uuuuuuuuuuuuuuuuuuuuuuuuuuuuuuuuuy%%5588992<@@<19qaa9111111111111122AAAZ2<o..... +3uuuuuuuuuuuuuuuuuuuuuuuuuuuuuuuuuuuuuuuuuuuuu",
"uuuuuuuuuuuuuuuuuuuuuuuuuuuuuuuuu7%%yu00qqq2%%909qqqqqqqqqqqqqqqqqqqqqqqq2%++++++%7uuuuuuuuuuuuuuuuuuuuuuuuuuuuuuuuuuuuuuuuuuuuu",
"uuuuuuuuuuuuuuuuuuuuuuuuuuuuuduuuuy7uuuuiuui77yiiuuyiuyuiudiuuyuuyiuiuuiuiy7777777uuuuuuuuuuuuuuuuuuuduuuuuuduuuuuuuuuuuuuuduuuu",
"uuuuuuuuuuuuuuduuuuuuuuuuuuuuuuuuuuuuuuuuuuuuuuuuuuuuuuduuuduuuududuuuuuuuuuuuuuuuuuuuuu77uuuuuuuuuuuuuuuuuuuuuduuuuuuuuuuuuuuuu",
"uuuuuuuuuuuuuuuuuuuuuuuduuuuuuuuuuuuuuuuduuuuuuuuuuuduuuduuuuuuuuuuuuuuuuuuuuuuuuuuuuuuu%%uuuuuuuuuuuuuuuuuuuuuuuuuuuuuuuuuuuudu",
"uuuuuuuuuuuuuuduuuuuuuuuuuuuuuuuuuduuuuuuuyuuuuuuuuuuuuuuuuuuuuuuuuuuuuuuuuuuuuuuuuuuuuu%%uuuduuuuuuuuuuuuuuuuuuuuuuuuuuuuuuuuuu",
"uuuuuuuuuuuuuduuuuuuuuuuuuuuuuuuuuuuuuuuduuuuuduuuuuuuuuuuuuuuuuuduuuuuuuuuuuuuuuuuuuuuuuuuuuudduuuuuuuuuuuuuuuuuuuuuuduuuuuuuuu",
"uuuuuuuuuuuuduuuuuuuuuuuuuuuuuuuuuuuuuuuuuuuuudduuuuuuuuuuuuuuuuuuuuuuuduuuuuuuuuuuuuuuuuuuuuuduuuuuuuuuduuuuuuuuuuuuuuuuuuuuuuu",
"uuuuuuuuuuuuuuuuuuuuuuuduuuuuuuuuuuuuuuuuuuudduduuuduuuuduuuuydduuuuduuuuuuuuuuuuuuuuuuuuuuuuuuuuuuuuuuuuuuuuduuuuuuuuduuuuuuuuu",
"uuuuuuuuuuuuuuuuuuuuduuuuuduuuuuuuuuuuuuuuuuddgkkkkzzzzgkkkkzkkzkkzgkkkkkkkzuuuuuuuuuuuuuuuuuuuuuuuuuuuuuuuuuuuuuuuuuuuuuuuduuuu",
"uuuuuuuuuuuuuuuuuuuuuuuuuduuuuuuuuuuduuuuuuuugQ))))))))))))))))))))))))))))Qguuuuuuuuuuuuuuuuuuuuuuuuuuuuuuuuuuduuuuduuuuuuuuuuu",
"uuuuuuuuuuuuuuuuuuuuuuduuuuuuuuuuuuuuuuuuuuudk)''''''''''''''''''''''''''''_guuuuuuuuuuuuuuuuuuuuuuuuuuuuuuuuuuuuuuuuuuduuuuuuuu"
};
